<mxfile host="app.diagrams.net" modified="2020-08-15T09:51:06.802Z" agent="5.0 (Macintosh; Intel Mac OS X 10_15_4) AppleWebKit/605.1.15 (KHTML, like Gecko) Version/13.1.2 Safari/605.1.15" etag="_DRgTX1x7qzr--zZGLrR" version="13.6.2" type="github">
  <diagram id="FLqc_6nqLsgoh25ZXXnE" name="Page-1">
    <mxGraphModel dx="576" dy="912" grid="1" gridSize="10" guides="1" tooltips="1" connect="1" arrows="1" fold="1" page="1" pageScale="1" pageWidth="827" pageHeight="1169" math="0" shadow="0">
      <root>
        <mxCell id="0" />
        <mxCell id="1" parent="0" />
        <mxCell id="aOhT9aE5Nu4Gf7o1A3zi-1" value="" style="rounded=0;whiteSpace=wrap;html=1;" vertex="1" parent="1">
          <mxGeometry x="240" y="440" width="120" height="60" as="geometry" />
        </mxCell>
      </root>
    </mxGraphModel>
  </diagram>
</mxfile>
